HIERARCHY
ROOT Hips
{
	OFFSET 0.000000 0.000000 0.000000
	CHANNELS 6 Xposition Yposition Zposition Zrotation Yrotation Xrotation 
	JOINT LHipJoint
	{
		OFFSET 0.000000 0.000000 0.000000
		CHANNELS 3 Zrotation Yrotation Xrotation
		JOINT LeftUpLeg
		{
			OFFSET 1.363060 -1.794630 0.839290
			CHANNELS 3 Zrotation Yrotation Xrotation
			JOINT LeftLeg
			{
				OFFSET 2.448110 -6.726130 0.000000
				CHANNELS 3 Zrotation Yrotation Xrotation
				JOINT LeftFoot
				{
					OFFSET 2.562200 -7.039590 0.000000
					CHANNELS 3 Zrotation Yrotation Xrotation
					JOINT LeftToeBase
					{
						OFFSET 0.157640 -0.433110 2.322550
						CHANNELS 3 Zrotation Yrotation Xrotation
						End Site
						{
							OFFSET 0.000000 0.000000 0.000000
						}
					}
				}
			}
		}
	}
	JOINT RHipJoint
	{
		OFFSET 0.000000 0.000000 0.000000
		CHANNELS 3 Zrotation Yrotation Xrotation
		JOINT RightUpLeg
		{
			OFFSET -1.305520 -1.794630 0.839290
			CHANNELS 3 Zrotation Yrotation Xrotation
			JOINT RightLeg
			{
				OFFSET -2.542530 -6.985550 0.000000
				CHANNELS 3 Zrotation Yrotation Xrotation
				JOINT RightFoot
				{
					OFFSET -2.568260 -7.056230 0.000000
					CHANNELS 3 Zrotation Yrotation Xrotation
					JOINT RightToeBase
					{
						OFFSET -0.164730 -0.452590 2.363150
						CHANNELS 3 Zrotation Yrotation Xrotation
						End Site
						{
							OFFSET 0.000000 0.000000 0.000000
						}
					}
				}
			}
		}
	}
	JOINT LowerBack
	{
		OFFSET 0.000000 0.000000 0.000000
		CHANNELS 3 Zrotation Yrotation Xrotation
		JOINT Spine
		{
			OFFSET 0.028270 2.035590 -0.193380
			CHANNELS 3 Zrotation Yrotation Xrotation
			JOINT Spine1
			{
				OFFSET 0.056720 2.048850 -0.042750
				CHANNELS 3 Zrotation Yrotation Xrotation
				JOINT Neck
				{
					OFFSET 0.000000 0.000000 0.000000
					CHANNELS 3 Zrotation Yrotation Xrotation
					JOINT Neck1
					{
						OFFSET -0.054170 1.746240 0.172020
						CHANNELS 3 Zrotation Yrotation Xrotation
						JOINT Head
						{
							OFFSET 0.104070 1.761360 -0.123970
							CHANNELS 3 Zrotation Yrotation Xrotation
							End Site
							{
								OFFSET 0.000000 0.000000 0.000000
							}
						}
					}
				}
				JOINT LeftShoulder
				{
					OFFSET 0.000000 0.000000 0.000000
					CHANNELS 3 Zrotation Yrotation Xrotation
					JOINT LeftArm
					{
						OFFSET 3.362410 1.200890 -0.311210
						CHANNELS 3 Zrotation Yrotation Xrotation
						JOINT LeftForeArm
						{
							OFFSET 4.983000 -0.000000 -0.000000
							CHANNELS 3 Zrotation Yrotation Xrotation
							JOINT LeftHand
							{
								OFFSET 3.483560 -0.000000 -0.000000
								CHANNELS 3 Zrotation Yrotation Xrotation
								JOINT LeftFingerBase
								{
									OFFSET 0.000000 0.000000 0.000000
									CHANNELS 3 Zrotation Yrotation Xrotation
									JOINT LeftHandIndex1
									{
										OFFSET 0.715260 -0.000000 -0.000000
										CHANNELS 3 Zrotation Yrotation Xrotation
										End Site
										{
											OFFSET 0.000000 0.000000 0.000000
										}
									}
								}
								JOINT LThumb
								{
									OFFSET 0.000000 0.000000 0.000000
									CHANNELS 3 Zrotation Yrotation Xrotation
									End Site
									{
										OFFSET 0.000000 0.000000 0.000000
									}
								}
							}
						}
					}
				}
				JOINT RightShoulder
				{
					OFFSET 0.000000 0.000000 0.000000
					CHANNELS 3 Zrotation Yrotation Xrotation
					JOINT RightArm
					{
						OFFSET -3.136600 1.374050 -0.404650
						CHANNELS 3 Zrotation Yrotation Xrotation
						JOINT RightForeArm
						{
							OFFSET -5.241900 -0.000000 -0.000000
							CHANNELS 3 Zrotation Yrotation Xrotation
							JOINT RightHand
							{
								OFFSET -3.444170 -0.000000 -0.000000
								CHANNELS 3 Zrotation Yrotation Xrotation
								JOINT RightFingerBase
								{
									OFFSET 0.000000 0.000000 0.000000
									CHANNELS 3 Zrotation Yrotation Xrotation
									JOINT RightHandIndex1
									{
										OFFSET -0.622530 -0.000000 -0.000000
										CHANNELS 3 Zrotation Yrotation Xrotation
										End Site
										{
											OFFSET 0.000000 0.000000 0.000000
										}
									}
								}
								JOINT RThumb
								{
									OFFSET 0.000000 0.000000 0.000000
									CHANNELS 3 Zrotation Yrotation Xrotation
									End Site
									{
										OFFSET 0.000000 0.000000 0.000000
									}
								}
							}
						}
					}
				}
			}
		}
	}
}
MOTION
Frames: 12
Frame Time: 0.008333
-1.648979 17.874871 -1.114683 -127.449568 85.495414 -108.897684 -10.660719 0.342078 2.545668 -14.747835 -0.336293 -33.206508 -2.368864 -0.824234 6.920881 0.899780 6.831266 4.782369 2.042000 -0.000000 -33.705900 8.768807 -3.996336 -0.607026 10.650479 -6.590309 -7.828576 2.038277 -1.562935 17.209712 0.290488 3.982725 19.189000 1.477500 -0.000000 -70.529600 0.891420 -0.793890 -1.707630 -0.790654 -0.936242 -3.672637 -7.909300 -0.806516 -2.134091 11.000054 -11.020279 -8.420369 -2.548796 -0.189533 -0.199374 0.000000 0.000000 0.000000 5.000925 12.159985 -0.428543 -71.466391 27.986619 25.635123 179.811124 -68.809537 179.947361 7.522076 -7.761054 -0.547065 -0.064147 0.520396 0.000000 0.000000 0.000000 0.000000 0.000000 0.000000 0.000000 5.685099 -3.056738 -1.341460 83.178511 8.728433 33.015852 179.010609 70.128192 179.997978 -0.207365 11.415211 -0.017539 -0.020551 -0.835387 -0.000000 0.000000 0.000000 0.000000 0.000000 0.000000 0.000000 
-1.418558 17.877726 -1.165742 -127.827851 85.269631 -109.551460 -10.766040 0.462655 2.422606 -15.600873 0.974533 -33.016637 -2.534562 -0.857180 5.757118 0.700475 5.901812 6.173585 1.976700 0.000000 -34.203000 8.775721 -4.083187 -0.601920 10.491070 -6.942377 -7.952652 1.891040 -1.702100 18.961997 0.225557 3.847782 19.582815 1.475600 0.000000 -70.826400 0.980195 -0.844686 -1.695280 -0.768112 -0.993037 -3.662190 -7.915972 -0.865433 -2.082674 10.982743 -11.137256 -8.352707 -2.521309 -0.188601 -0.174303 0.000000 0.000000 0.000000 4.854533 12.197927 -0.493929 -71.615222 28.419605 25.333612 179.811212 -69.098615 179.947533 7.642065 -7.813471 -0.559176 -0.067247 0.514522 0.000000 0.000000 0.000000 0.000000 0.000000 0.000000 0.000000 5.607903 -3.275389 -1.397100 83.246130 8.631561 33.168357 179.016743 70.214780 179.999659 0.032260 11.377633 0.008954 -0.028345 -0.828875 -0.000000 0.000000 0.000000 0.000000 0.000000 0.000000 0.000000 
-1.190756 17.868521 -1.216902 -128.341268 85.062489 -110.323961 -10.851405 0.579939 2.305497 -16.425225 2.131815 -32.885656 -2.667143 -0.869975 5.085423 0.569838 5.240594 7.035471 1.890200 0.000000 -33.670700 8.778943 -4.143618 -0.597072 10.321763 -7.199167 -8.213141 1.726008 -1.841253 21.004422 0.138488 3.408181 19.505044 1.308400 -0.000001 -70.992200 1.053931 -0.897921 -1.679163 -0.747478 -1.050907 -3.652222 -7.918509 -0.925632 -2.038975 10.963092 -11.228325 -8.281833 -2.498265 -0.187997 -0.149241 0.000000 0.000000 0.000000 4.700468 12.212883 -0.546464 -71.776624 28.743278 25.047093 179.815576 -69.440568 179.947882 7.712468 -7.880517 -0.568790 -0.069238 0.509709 0.000000 0.000000 0.000000 0.000000 0.000000 0.000000 0.000000 5.543091 -3.466869 -1.450339 83.274888 8.487743 33.265695 179.033690 70.311361 -179.999684 0.163095 11.348058 0.023368 -0.033542 -0.822660 -0.000000 0.000000 0.000000 0.000000 0.000000 0.000000 0.000000 
-0.966106 17.847121 -1.267785 -129.033673 84.875519 -111.258141 -10.915859 0.687547 2.214492 -17.149902 3.014377 -32.727830 -2.753501 -0.873339 4.796671 0.515213 4.951190 7.361960 1.840100 -0.000000 -32.150600 8.781005 -4.173645 -0.609014 10.135395 -7.389539 -8.584958 1.546459 -1.979921 23.294766 0.030302 2.688102 19.004384 0.998500 -0.000000 -70.880799 1.106908 -0.953705 -1.654474 -0.730556 -1.109406 -3.641425 -7.918426 -0.986344 -2.002908 10.944734 -11.311220 -8.212814 -2.479951 -0.187667 -0.125728 0.000000 0.000000 0.000000 4.538666 12.191358 -0.587339 -71.945392 28.963856 24.769818 179.822503 -69.819137 179.948389 7.737146 -7.939546 -0.574413 -0.070072 0.505394 0.000000 0.000000 0.000000 0.000000 0.000000 0.000000 0.000000 5.498674 -3.648171 -1.496465 83.264198 8.324535 33.320072 179.056514 70.416806 -179.999836 0.196604 11.320559 0.027103 -0.036052 -0.816761 -0.000000 0.000000 0.000000 0.000000 0.000000 0.000000 0.000000 
-0.745125 17.813371 -1.318197 -129.817768 84.695900 -112.278679 -10.962810 0.778521 2.144375 -17.739317 3.625508 -32.518101 -2.793686 -0.867987 4.882263 0.527650 4.989604 7.114238 1.823100 0.000000 -29.669900 8.779747 -4.175315 -0.642527 9.947397 -7.515148 -9.018136 1.357475 -2.116093 25.755901 -0.101411 1.694895 18.156780 0.570400 -0.000000 -70.585100 1.148983 -1.008711 -1.607755 -0.716318 -1.165336 -3.628017 -7.917473 -1.044036 -1.977198 10.928457 -11.371303 -8.145559 -2.466909 -0.187633 -0.103960 0.000000 0.000000 0.000000 4.393332 12.137898 -0.611962 -72.131429 29.064904 24.516031 179.830953 -70.245137 179.948992 7.714309 -8.004584 -0.576947 -0.069624 0.502055 0.000000 0.000000 0.000000 0.000000 0.000000 0.000000 0.000000 5.469413 -3.798593 -1.537126 83.219339 8.128330 33.303741 179.085057 70.506653 179.999373 0.161999 11.279797 0.023350 -0.037148 -0.811022 -0.000000 0.000000 0.000000 0.000000 0.000000 0.000000 0.000000 
-0.528014 17.767263 -1.367920 -130.677396 84.523461 -113.372177 -10.993457 0.847035 2.101232 -18.163285 3.922762 -32.221514 -2.785990 -0.857937 5.291304 0.606077 5.349616 6.306069 1.833300 -0.000000 -26.390800 8.777213 -4.148477 -0.704868 9.752567 -7.597940 -9.493107 1.163145 -2.249770 28.345167 -0.256591 0.478421 17.027023 0.070100 0.000000 -70.051100 1.179701 -1.062611 -1.534789 -0.705417 -1.218201 -3.611025 -7.917213 -1.097975 -1.961266 10.915728 -11.416895 -8.084752 -2.459109 -0.187824 -0.085274 0.000000 0.000000 0.000000 4.264221 12.053751 -0.621165 -72.321820 29.047045 24.295251 179.840018 -70.708117 179.949666 7.651655 -8.064297 -0.576087 -0.068101 0.499425 0.000000 0.000000 0.000000 0.000000 0.000000 0.000000 0.000000 5.457819 -3.924542 -1.570205 83.146279 7.914043 33.219627 179.115329 70.578042 179.998271 0.094501 11.221031 0.016102 -0.037666 -0.805383 -0.000000 0.000000 0.000000 0.000000 0.000000 0.000000 0.000000 
-0.314760 17.708991 -1.416674 -131.597996 84.361959 -114.525721 -11.007454 0.888974 2.087632 -18.415599 3.883832 -31.823491 -2.732823 -0.845229 5.987256 0.748965 5.999185 4.970197 1.842800 -0.000000 -22.548300 8.776863 -4.093465 -0.799115 9.539533 -7.653759 -9.996989 0.966793 -2.381096 31.023889 -0.434521 -0.906310 15.678848 -0.455500 0.000000 -69.276100 1.194674 -1.115062 -1.433930 -0.699112 -1.267348 -3.589852 -7.919090 -1.147334 -1.953847 10.908368 -11.450197 -8.034920 -2.456882 -0.188200 -0.070963 0.000000 0.000000 0.000000 4.153971 11.949306 -0.615308 -72.501893 28.902201 24.125705 179.849140 -71.200962 179.950361 7.561967 -8.115113 -0.572530 -0.065918 0.497482 0.000000 0.000000 0.000000 0.000000 0.000000 0.000000 0.000000 5.467618 -4.025707 -1.594897 83.051163 7.689030 33.064972 179.144408 70.628236 179.997177 0.032253 11.143049 0.009551 -0.038631 -0.799860 -0.000000 0.000000 0.000000 0.000000 0.000000 0.000000 0.000000 
-0.105285 17.638744 -1.464478 -132.540271 84.207625 -115.696384 -11.007442 0.904244 2.095074 -18.527153 3.563578 -31.392101 -2.646309 -0.822265 7.031399 0.945268 6.817236 3.118813 1.788500 -0.000000 -18.359300 8.778157 -4.014951 -0.917511 9.313273 -7.687108 -10.541668 0.771174 -2.510366 33.775439 -0.632849 -2.404734 14.165645 -0.964800 0.000000 -68.187400 1.201639 -1.166150 -1.309304 -0.695853 -1.313664 -3.565817 -7.923984 -1.193176 -1.956161 10.903123 -11.477112 -7.999002 -2.459809 -0.188703 -0.061629 0.000000 0.000000 0.000000 4.043816 11.824341 -0.596965 -72.646535 28.642143 24.016726 179.858295 -71.702130 179.951081 7.450715 -8.146824 -0.565873 -0.063310 0.496036 0.000000 0.000000 0.000000 0.000000 0.000000 0.000000 0.000000 5.495021 -4.107002 -1.609281 82.943451 7.461524 32.843996 179.169486 70.666145 179.996390 0.009900 11.053474 0.007394 -0.040867 -0.794534 -0.000000 0.000000 0.000000 0.000000 0.000000 0.000000 0.000000 
0.100687 17.557261 -1.510894 -133.549819 84.077973 -116.924706 -10.988111 0.894599 2.126663 -18.529910 2.944168 -30.929192 -2.533121 -0.789931 8.377903 1.196079 7.788578 0.836733 1.640600 0.000000 -14.143900 8.789785 -3.911536 -1.057539 9.043305 -7.705229 -11.134856 0.576798 -2.637790 36.577968 -0.847558 -3.956084 12.539763 -1.420100 -0.000000 -66.861900 1.181444 -1.216048 -1.167910 -0.699377 -1.356429 -3.539214 -7.932623 -1.234807 -1.963888 10.904031 -11.495970 -7.981413 -2.468764 -0.189339 -0.058532 0.000000 0.000000 0.000000 3.936247 11.702208 -0.566700 -72.733610 28.243219 23.995587 179.867824 -72.220561 179.951756 7.345135 -8.160746 -0.558608 -0.061235 0.495085 0.000000 0.000000 0.000000 0.000000 0.000000 0.000000 0.000000 5.552489 -4.166037 -1.613784 82.825703 7.232426 32.555280 179.189789 70.703827 179.996096 0.051117 10.963028 0.011926 -0.044979 -0.789584 -0.000000 0.000000 0.000000 0.000000 0.000000 0.000000 0.000000 
0.303548 17.465294 -1.555799 -134.631085 83.976998 -118.206128 -10.949325 0.866033 2.171230 -18.483489 2.103089 -30.516119 -2.409826 -0.738943 10.080378 1.488615 8.807363 -1.822294 1.351000 -0.000000 -10.110600 8.815050 -3.786816 -1.205412 8.723721 -7.699522 -11.801667 0.384268 -2.763197 39.425149 -1.072998 -5.509372 10.839795 -1.795400 0.000000 -65.275600 1.131774 -1.264721 -1.019748 -0.709672 -1.395975 -3.511895 -7.944907 -1.272902 -1.975780 10.909389 -11.509421 -7.984199 -2.483768 -0.190095 -0.062059 0.000000 0.000000 0.000000 3.813732 11.590677 -0.526924 -72.737715 27.702467 24.074361 179.878359 -72.749558 179.952366 7.262269 -8.151722 -0.551625 -0.060349 0.494493 0.000000 0.000000 0.000000 0.000000 0.000000 0.000000 0.000000 5.643141 -4.206499 -1.607649 82.701733 7.003138 32.204595 179.205127 70.764201 179.996372 0.163547 10.889796 0.023851 -0.051019 -0.785227 -0.000000 0.000000 0.000000 0.000000 0.000000 0.000000 0.000000 
0.503668 17.363918 -1.599082 -135.800825 83.909650 -119.548606 -10.891359 0.826465 2.217110 -18.445187 1.124150 -30.222293 -2.292485 -0.660911 12.168170 1.808519 9.790489 -4.782122 0.896200 0.000000 -6.422800 8.858293 -3.643721 -1.346592 8.347707 -7.656309 -12.566033 0.193646 -2.886177 42.308983 -1.302557 -7.019513 9.099553 -2.074100 0.000000 -63.445200 1.048185 -1.311641 -0.875247 -0.727048 -1.431966 -3.485490 -7.960169 -1.307480 -1.989351 10.918358 -11.517838 -8.008332 -2.504964 -0.190978 -0.072348 0.000000 0.000000 0.000000 3.663283 11.500208 -0.479404 -72.638910 27.007995 24.264467 179.890732 -73.294775 179.952865 7.223794 -8.117586 -0.546618 -0.061476 0.494133 0.000000 0.000000 0.000000 0.000000 0.000000 0.000000 0.000000 5.772809 -4.230931 -1.591114 82.571742 6.769729 31.797562 179.217086 70.875278 179.997133 0.335856 10.853484 0.042075 -0.058529 -0.781660 -0.000000 0.000000 0.000000 0.000000 0.000000 0.000000 0.000000 
0.701519 17.254444 -1.640724 -137.058523 83.873675 -120.941628 -10.817730 0.784429 2.252481 -18.458810 0.102296 -30.108719 -2.194800 -0.548401 14.650858 2.138617 10.668586 -7.952765 0.279000 0.000001 -3.186500 8.921783 -3.486260 -1.464991 7.920318 -7.553580 -13.449614 0.005252 -3.006096 45.217073 -1.529812 -8.453240 7.346753 -2.250000 0.000000 -61.406500 0.932377 -1.355499 -0.746327 -0.750366 -1.463670 -3.461122 -7.976008 -1.338096 -1.998825 10.929268 -11.525416 -8.055654 -2.531690 -0.191917 -0.089794 0.000000 0.000000 0.000000 3.475970 11.445360 -0.425873 -72.427161 26.136076 24.576547 179.905694 -73.873822 179.953217 7.255634 -8.054046 -0.545178 -0.065588 0.493812 0.000000 0.000000 0.000000 0.000000 0.000000 0.000000 0.000000 5.945345 -4.247816 -1.565610 82.430076 6.531275 31.346068 179.228568 71.071640 179.998121 0.533832 10.873133 0.063005 -0.066350 -0.778942 -0.000000 0.000000 0.000000 0.000000 0.000000 0.000000 0.000000 
